<svg width="250" height="173" viewBox="0 0 250 173" fill="none" xmlns="http://www.w3.org/2000/svg">
<g style="mix-blend-mode:luminosity">
<path d="M240.488 77.644L143.681 30.2918C141.346 29.1501 138.625 28.9264 136.116 29.67C133.606 30.4135 131.514 32.0633 130.299 34.2564L89.0667 108.68C87.8516 110.874 87.6135 113.43 88.4048 115.789C89.1961 118.147 90.9519 120.113 93.286 121.255L190.093 168.607C192.427 169.748 195.148 169.972 197.658 169.229C200.167 168.485 202.26 166.835 203.475 164.642L244.707 90.2181C245.922 88.0249 246.16 85.4681 245.369 83.11C244.577 80.7519 242.822 78.7857 240.488 77.644ZM142.486 99.0751C143.055 100.19 143.13 101.471 142.693 102.637C142.257 103.804 141.345 104.759 140.159 105.294C138.973 105.829 137.609 105.899 136.368 105.489C135.127 105.079 134.11 104.222 133.54 103.108L122.811 82.0942C122.478 81.4418 122.311 80.7254 122.324 80.0019C122.336 79.2783 122.528 78.5674 122.884 77.9255C123.239 77.2837 123.749 76.7284 124.373 76.3037C124.996 75.879 125.716 75.5966 126.476 75.4788L150.949 71.6842C152.248 71.483 153.578 71.7745 154.647 72.4947C155.716 73.2149 156.438 74.3047 156.652 75.5245C156.866 76.7443 156.556 77.994 155.789 78.9989C155.023 80.0037 153.863 80.6813 152.565 80.8826L134.616 83.6643L142.486 99.0751ZM195.322 78.0173L145.651 127.293C145.207 127.751 144.67 128.121 144.072 128.382C143.473 128.642 142.825 128.788 142.166 128.811C141.507 128.833 140.85 128.732 140.233 128.513C139.616 128.294 139.052 127.962 138.573 127.536C138.094 127.109 137.711 126.598 137.445 126.031C137.179 125.463 137.037 124.852 137.025 124.232C137.014 123.613 137.134 122.997 137.379 122.422C137.624 121.846 137.989 121.323 138.452 120.881L188.122 71.6053C189.034 70.7358 190.272 70.237 191.571 70.216C192.87 70.1951 194.126 70.6538 195.069 71.4935C196.012 72.3332 196.566 73.487 196.614 74.7068C196.661 75.9267 196.197 77.1153 195.322 78.0173ZM207.297 123.42L182.824 127.214C181.526 127.416 180.196 127.124 179.126 126.404C178.057 125.684 177.336 124.594 177.122 123.374C176.908 122.154 177.218 120.904 177.984 119.9C178.751 118.895 179.911 118.217 181.209 118.016L199.158 115.234L191.288 99.8234C191.006 99.2715 190.842 98.6729 190.807 98.0616C190.771 97.4504 190.864 96.8386 191.08 96.2611C191.296 95.6836 191.631 95.1518 192.066 94.6959C192.501 94.2401 193.027 93.8692 193.614 93.6044C194.202 93.3396 194.839 93.1861 195.489 93.1527C196.14 93.1193 196.791 93.2066 197.406 93.4096C198.02 93.6126 198.586 93.9274 199.071 94.336C199.557 94.7446 199.951 95.2389 200.233 95.7908L210.962 116.804C211.296 117.457 211.462 118.173 211.45 118.897C211.437 119.62 211.246 120.331 210.89 120.973C210.534 121.615 210.025 122.17 209.401 122.595C208.777 123.02 208.057 123.302 207.297 123.42Z" fill="#E4E968"/>
<path d="M119.14 0.395691H10.0018C7.37037 0.395691 4.84675 1.3779 2.98607 3.12625C1.12539 4.87459 0.0800781 7.24586 0.0800781 9.71839V93.6227C0.0800781 96.0952 1.12539 98.4665 2.98607 100.215C4.84675 101.963 7.37037 102.945 10.0018 102.945H119.14C121.772 102.945 124.295 101.963 126.156 100.215C128.017 98.4665 129.062 96.0952 129.062 93.6227V9.71839C129.062 7.24586 128.017 4.87459 126.156 3.12625C124.295 1.3779 121.772 0.395691 119.14 0.395691ZM42.7433 61.9255C43.7959 62.6673 44.4917 63.7715 44.6778 64.9954C44.8639 66.2192 44.5249 67.4624 43.7355 68.4514C42.9461 69.4404 41.7709 70.0943 40.4684 70.2691C39.1659 70.4439 37.8429 70.1254 36.7903 69.3837L16.9469 55.3996C16.3308 54.9654 15.8308 54.4024 15.4863 53.7552C15.1419 53.1079 14.9626 52.3942 14.9626 51.6705C14.9626 50.9469 15.1419 50.2332 15.4863 49.5859C15.8308 48.9387 16.3308 48.3756 16.9469 47.9415L36.7903 33.9574C37.8429 33.2156 39.1659 32.8972 40.4684 33.072C41.7709 33.2468 42.9461 33.9007 43.7355 34.8897C44.5249 35.8787 44.8639 37.1219 44.6778 38.3457C44.4917 39.5695 43.7959 40.6738 42.7433 41.4156L28.1894 51.6705L42.7433 61.9255ZM79.2613 20.323L59.4179 85.5818C59.2488 86.1808 58.9543 86.7421 58.5516 87.2329C58.1488 87.7237 57.646 88.1341 57.0725 88.4401C56.4989 88.7461 55.8662 88.9415 55.2114 89.015C54.5565 89.0885 53.8926 89.0386 53.2585 88.8681C52.6244 88.6977 52.0328 88.4101 51.5184 88.0223C51.004 87.6345 50.577 87.1542 50.2625 86.6095C49.948 86.0647 49.7522 85.4666 49.6867 84.8499C49.6211 84.2333 49.6871 83.6105 49.8807 83.0181L69.7241 17.7592C70.1055 16.5923 70.9588 15.6126 72.1006 15.0305C73.2425 14.4484 74.5818 14.3104 75.8308 14.6461C77.0798 14.9819 78.1388 15.7646 78.7802 16.8261C79.4217 17.8875 79.5944 19.1431 79.2613 20.323ZM112.195 55.3996L92.3517 69.3837C91.2992 70.1254 89.9761 70.4439 88.6736 70.2691C87.3712 70.0943 86.196 69.4404 85.4065 68.4514C84.6171 67.4624 84.2782 66.2192 84.4642 64.9954C84.6503 63.7715 85.3462 62.6673 86.3987 61.9255L100.953 51.6705L86.3987 41.4156C85.8775 41.0483 85.4385 40.5881 85.1065 40.0614C84.7746 39.5347 84.5564 38.9517 84.4642 38.3457C84.3721 37.7397 84.4079 37.1226 84.5696 36.5296C84.7313 35.9366 85.0157 35.3794 85.4065 34.8897C85.7974 34.4 86.2871 33.9874 86.8477 33.6755C87.4083 33.3636 88.0287 33.1586 88.6736 33.072C89.3186 32.9854 89.9753 33.0191 90.6064 33.171C91.2375 33.3229 91.8306 33.5901 92.3517 33.9574L112.195 47.9415C112.811 48.3756 113.311 48.9387 113.656 49.5859C114 50.2332 114.179 50.9469 114.179 51.6705C114.179 52.3942 114 53.1079 113.656 53.7552C113.311 54.4024 112.811 54.9654 112.195 55.3996Z" fill="#3D4631"/>
</g>
</svg>
