<svg width="267" height="231" viewBox="0 0 267 231" fill="none" xmlns="http://www.w3.org/2000/svg">
<g style="mix-blend-mode:multiply">
<path d="M133.577 166.19L157.584 120.072L172.24 127.702L151.299 167.93C142.265 185.73 138.014 190.756 126.757 191.939C110.689 192.347 96.3406 178.25 97.7924 163.717L113.446 162.625C113.701 172.341 117.174 175.488 123.284 176.437C127.803 177.139 130.899 171.741 133.577 166.19ZM149.267 188.345L164.679 187.679C165.314 194.215 166.855 198.427 171.565 202.273C178.276 206.876 186.767 208.171 189.113 199.72C190.689 192.637 178.465 184.353 173.069 173.096C167.222 162.377 172.755 146.61 184.504 142.072C196.903 136.378 219.942 146.395 219.937 166.367L204.697 167.75C205.588 155.863 189.664 149.767 187.233 162.373C186.257 171.475 211.219 184.47 204.893 204.69C201.835 215.574 193.844 221.107 184.808 221.408C169.244 221.926 148.955 208.46 149.267 188.346M126.035 157.793L145.66 120.094L145.009 109.525L120.898 96.9737L69.6562 128.444L126.035 157.793ZM155.847 107.255L166.186 112.637L164.768 96.5212L185.939 55.8513L194.371 60.2403C200.677 63.5235 205.322 54.6008 199.015 51.3177L137.603 19.3482C131.296 16.0652 126.651 24.9879 132.958 28.2709L141.389 32.6599L120.218 73.3295L40.6026 121.945C33.0365 126.685 33.3339 132.262 41.8537 136.697L92.2857 162.95L96.9305 154.028L48.5741 128.855L128.072 80.3157L150.43 37.3665L176.897 51.1444L154.539 94.0935L155.847 107.255Z" fill="#EFEFEF"/>
</g>
<path d="M105.589 136.733V84.7407H122.111V130.093C122.317 150.053 120.867 156.474 111.428 162.721C97.3647 170.503 78.1283 164.624 72.7055 151.063L86.0861 142.866C90.7984 151.367 95.3324 152.555 101.19 150.575C105.523 149.111 105.776 142.893 105.589 136.733ZM129.736 149.14L143.099 141.432C146.68 146.936 149.992 149.961 155.945 151.198C164.024 152.182 172.154 149.41 170.332 140.831C168.46 133.82 153.792 132.117 143.808 124.623C133.671 117.815 131.299 101.275 139.625 91.8243C147.993 81.0487 173.055 79.2953 182.273 97.0134L169.393 105.277C164.695 94.3221 147.755 96.2676 151.42 108.572C154.757 117.096 182.899 117.096 186.624 137.953C188.937 149.019 184.404 157.617 176.528 162.056C162.961 169.702 138.747 167.126 129.736 149.14M95.0215 132.767V90.2663L89.5644 81.192H62.3813L31.4609 132.767L95.0215 132.767ZM98.1291 74.1736H109.785L101.086 60.5336V14.683H110.591C117.701 14.683 117.701 4.62378 110.591 4.62378H41.3554C34.2455 4.62378 34.2455 14.683 41.3554 14.683H50.8606V60.5332L2.68943 140.418C-1.83332 148.116 1.00566 152.925 10.6107 152.925H67.4668V142.866H12.9507L61.0536 63.1032V14.683H90.8921V63.1032L98.1291 74.1736Z" fill="#394A28"/>
</svg>
