<svg width="231" height="256" viewBox="0 0 231 256" fill="none" xmlns="http://www.w3.org/2000/svg">
<path d="M62.5995 206.338L127.512 206.338M149.149 195.52C147.01 193.38 144.283 191.923 141.316 191.332C138.348 190.742 135.271 191.045 132.476 192.203C129.68 193.361 127.29 195.322 125.609 197.838C123.928 200.354 123.031 203.312 123.031 206.338C123.031 209.364 123.928 212.322 125.609 214.838C127.29 217.355 129.68 219.316 132.476 220.474C135.271 221.632 138.348 221.935 141.316 221.344C144.283 220.754 147.01 219.297 149.149 217.157M40.962 184.701L3.09648 146.835L122.103 27.8292L219.471 125.198L165.377 179.291M57.1901 92.7416L132.921 168.473M30.1433 119.788L84.237 173.882M84.237 65.6947L181.606 163.063M181.606 119.788L187.015 125.198L181.606 130.607L176.196 125.198L181.606 119.788Z" stroke="#D1E2C0" stroke-width="3.672"/>
<path d="M91.2945 170.496L137.195 124.596M144.845 101.646C141.818 101.646 138.86 102.543 136.344 104.224C133.828 105.906 131.867 108.295 130.709 111.091C129.551 113.887 129.248 116.963 129.839 119.931C130.429 122.899 131.886 125.625 134.026 127.765C136.166 129.904 138.892 131.362 141.86 131.952C144.828 132.542 147.904 132.239 150.7 131.081C153.495 129.923 155.885 127.962 157.566 125.446C159.247 122.93 160.145 119.972 160.145 116.946M60.6945 170.496H7.14453V2.19586H144.845V78.6959M7.14453 93.9959H114.245M7.14453 132.246H83.6445M7.14453 55.7459H144.845M114.245 25.1459H121.895V32.7959H114.245V25.1459Z" stroke="#FAFF7E" stroke-width="3.672"/>
</svg>
