<svg width="550" height="404" viewBox="0 0 550 404" fill="none" xmlns="http://www.w3.org/2000/svg">
<rect width="550" height="471" fill="#FAFF7E"/>
<path opacity="0.6" d="M461.45 276.333H405.884C391.149 276.333 377.017 282.187 366.598 292.606C356.179 303.025 350.325 317.157 350.325 331.892C350.325 346.627 356.179 360.758 366.598 371.177C377.017 381.597 391.149 387.45 405.884 387.45H461.45V276.333Z" fill="#3D4631"/>
<path opacity="0.4" d="M461.45 387.45H405.883C391.151 387.45 377.021 393.303 366.604 403.72C356.186 414.138 350.333 428.267 350.333 443C350.333 457.733 356.186 471.862 366.604 482.28C377.021 492.697 391.151 498.55 405.883 498.55H461.45V387.45Z" fill="black"/>
<path d="M572.55 443C572.55 457.735 566.696 471.866 556.277 482.286C545.858 492.705 531.726 498.558 516.991 498.558C502.256 498.558 488.125 492.705 477.706 482.286C467.287 471.866 461.433 457.735 461.433 443C461.433 428.265 467.287 414.134 477.706 403.714C488.125 393.295 502.256 387.442 516.991 387.442C531.726 387.442 545.858 393.295 556.277 403.714C566.696 414.134 572.55 428.265 572.55 443Z" fill="black"/>
<path opacity="0.8" d="M461.433 276.333H516.983C531.718 276.333 545.85 282.187 556.269 292.606C566.688 303.025 572.541 317.157 572.541 331.892C572.541 346.627 566.688 360.758 556.269 371.177C545.85 381.597 531.718 387.45 516.983 387.45H461.433V276.333Z" fill="white"/>
</svg>
