<svg width="197" height="238" viewBox="0 0 197 238" fill="none" xmlns="http://www.w3.org/2000/svg">
<g style="mix-blend-mode:multiply">
<path d="M108.125 181.551L81.875 120.247C79.2969 114.247 77.1875 103.997 77.1875 97.4655C77.1875 90.9342 81.1953 85.5905 86.0937 85.5905C90.9922 85.5905 95 81.5749 95 76.6842C95 71.7936 89.6562 67.778 83.125 67.778H29.6875C23.1563 67.778 17.8125 71.778 17.8125 76.6842C17.8125 81.5905 21.8203 85.5905 26.7188 85.5905C31.6172 85.5905 35.625 90.9342 35.625 97.4655C35.625 103.997 33.5156 114.247 30.9375 120.255L4.6875 181.567C2.10938 187.567 0 195.161 0 198.419C0 201.676 2.67188 207.036 5.9375 210.294C9.20313 213.551 17.2188 216.231 23.75 216.231H89.0625C95.5859 216.231 103.594 213.575 106.875 210.294C110.156 207.012 112.812 201.684 112.812 198.419C112.812 195.153 110.703 187.559 108.125 181.567V181.551ZM64.8672 50.1999C64.8672 52.4438 65.7586 54.5959 67.3453 56.1826C68.9321 57.7694 71.0842 58.6608 73.3281 58.6608C75.5721 58.6608 77.7242 57.7694 79.3109 56.1826C80.8977 54.5959 81.7891 52.4438 81.7891 50.1999C81.788 47.9559 80.8956 45.8042 79.3081 44.2182C77.7207 42.6322 75.5682 41.7418 73.3242 41.7428C71.0802 41.7439 68.9286 42.6363 67.3426 44.2237C65.7566 45.8112 64.8662 47.9559 64.8672 50.1999ZM42.0938 51.5045C43.1298 51.5045 44.1233 51.093 44.8559 50.3604C45.5884 49.6279 46 48.6343 46 47.5983C46 46.5623 45.5884 45.5687 44.8559 44.8362C44.1233 44.1036 43.1298 43.692 42.0938 43.692C41.0578 43.692 40.0642 44.1036 39.3316 44.8362C38.5991 45.5687 38.1875 46.5623 38.1875 47.5983C38.1875 48.6343 38.5991 49.6279 39.3316 50.3604C40.0642 51.093 41.0578 51.5045 42.0938 51.5045ZM57.0703 31.9733C58.7457 32.0565 60.4205 31.7982 61.993 31.2141C63.5655 30.6301 65.0028 29.7324 66.2176 28.5757C67.4325 27.4189 68.3994 26.0273 69.0598 24.4853C69.7202 22.9433 70.0602 21.2832 70.0591 19.6057C70.0581 17.9283 69.716 16.2685 69.0536 14.7274C68.3913 13.1862 67.4226 11.7958 66.2063 10.6406C64.99 9.48541 63.5516 8.58956 61.9783 8.00747C60.4051 7.42539 58.73 7.16922 57.0547 7.25454C53.9105 7.45032 50.9593 8.83785 48.8028 11.1343C46.6463 13.4307 45.4467 16.4632 45.4487 19.6135C45.4507 22.7637 46.6541 25.7947 48.8135 28.0884C50.973 30.3821 53.9259 31.7659 57.0703 31.9577V31.9733Z" fill="#FAFF7E"/>
</g>
<g style="mix-blend-mode:multiply">
<path d="M112.044 204.544L117.068 138.045C117.551 131.533 120.413 121.467 123.429 115.674C126.445 109.88 132.467 106.991 136.812 109.253C141.157 111.515 146.566 109.803 148.825 105.465C151.083 101.127 148.197 95.0978 142.404 92.082L95.0041 67.4073C89.2108 64.3915 82.6239 65.4721 80.3584 69.824C78.093 74.1759 79.8009 79.5745 84.1459 81.8364C88.4909 84.0982 89.5784 90.6888 86.5626 96.4821C83.5468 102.275 76.9428 110.393 71.8819 114.532L20.2869 156.796C15.2296 160.927 9.85215 166.689 8.34786 169.579C6.84357 172.469 6.73887 178.456 8.13123 182.854C9.52358 187.251 15.3962 193.329 21.1895 196.345L79.1224 226.503C84.9087 229.515 93.2383 230.857 97.6639 229.461C102.089 228.066 106.906 224.566 108.414 221.67C109.922 218.773 111.557 211.063 112.037 204.558L112.044 204.544ZM134.326 68.0595C133.289 70.0499 133.086 72.3705 133.761 74.5106C134.436 76.6507 135.933 78.4351 137.924 79.4713C139.914 80.5074 142.235 80.7104 144.375 80.0357C146.515 79.3609 148.299 77.8636 149.335 75.8732C150.371 73.8822 150.573 71.5616 149.897 69.4218C149.221 67.282 147.723 65.4983 145.732 64.463C143.741 63.4278 141.421 63.2259 139.281 63.9016C137.141 64.5774 135.361 66.0686 134.326 68.0595ZM113.523 58.7012C114.442 59.1795 115.513 59.2733 116.501 58.9617C117.489 58.6502 118.313 57.9589 118.791 57.04C119.27 56.121 119.364 55.0497 119.052 54.0616C118.74 53.0736 118.049 52.2498 117.13 51.7714C116.211 51.293 115.14 51.1993 114.152 51.5108C113.164 51.8224 112.34 52.5136 111.862 53.4326C111.383 54.3515 111.29 55.4229 111.601 56.4109C111.913 57.399 112.604 58.2228 113.523 58.7012ZM135.826 48.2921C137.273 49.1396 138.878 49.6838 140.543 49.8918C142.207 50.0998 143.897 49.9673 145.508 49.5022C147.12 49.0371 148.62 48.2492 149.918 47.1863C151.216 46.1235 152.284 44.8079 153.058 43.3195C153.831 41.8311 154.294 40.201 154.418 38.5281C154.543 36.8553 154.325 35.1746 153.78 33.5883C153.234 32.0021 152.372 30.5432 151.245 29.3005C150.119 28.0577 148.751 27.057 147.226 26.3591C144.346 25.081 141.088 24.949 138.115 25.9902C135.142 27.0314 132.677 29.1673 131.224 31.9626C129.772 34.7578 129.439 38.002 130.296 41.0336C131.152 44.0653 133.132 46.6562 135.833 48.2783L135.826 48.2921Z" fill="#D1E2C0"/>
</g>
</svg>
