<svg width="338" height="338" viewBox="0 0 338 338" fill="none" xmlns="http://www.w3.org/2000/svg">
<g style="mix-blend-mode:luminosity">
<path d="M99.8921 121.281C102.246 122.51 104.041 124.591 104.912 127.099C105.783 129.607 105.664 132.353 104.578 134.776C103.492 137.199 101.522 139.115 99.0703 140.134C96.6187 141.153 93.8704 141.198 91.3871 140.259L90.2724 139.761L81.0327 134.951C78.679 133.722 76.8833 131.641 76.0125 129.133C75.1416 126.625 75.2613 123.879 76.3471 121.456C77.4329 119.033 79.4029 117.117 81.8545 116.098C84.3062 115.079 87.0544 115.034 89.5377 115.973L90.6524 116.471L99.8921 121.281ZM217.099 76.6031C219.362 77.7815 221.113 79.7494 222.022 82.1336C222.93 84.5178 222.932 87.1525 222.027 89.5379L221.528 90.6526L216.719 99.8923C215.49 102.246 213.409 104.042 210.901 104.913C208.393 105.783 205.647 105.664 203.224 104.578C200.801 103.492 198.885 101.522 197.865 99.0705C196.846 96.6188 196.802 93.8706 197.741 91.3873L198.239 90.2726L203.049 81.0329C204.325 78.5824 206.522 76.739 209.156 75.9082C211.791 75.0775 214.648 75.3274 217.099 76.6031ZM256.967 203.049C259.321 204.278 261.116 206.359 261.987 208.867C262.858 211.375 262.738 214.121 261.653 216.544C260.567 218.967 258.597 220.883 256.145 221.902C253.693 222.921 250.945 222.966 248.462 222.027L247.347 221.529L238.108 216.719C235.754 215.49 233.958 213.409 233.087 210.901C232.216 208.393 232.336 205.647 233.422 203.224C234.508 200.801 236.478 198.885 238.929 197.866C241.381 196.847 244.129 196.802 246.613 197.741L247.727 198.239L256.967 203.049ZM137.517 69.1497C139.936 68.387 142.551 68.5333 144.87 69.561C147.189 70.5888 149.053 72.4273 150.113 74.7318L150.582 75.9509L153.683 85.7856C154.474 88.311 154.275 91.043 153.125 93.4267C151.975 95.8104 149.961 97.6671 147.492 98.6196C145.023 99.5722 142.284 99.5491 139.831 98.5552C137.378 97.5613 135.396 95.671 134.286 93.2683L133.817 92.0493L130.716 82.2146C129.886 79.5802 130.136 76.7239 131.411 74.2739C132.687 71.8238 134.883 69.9807 137.517 69.1497ZM255.785 130.716C258.311 129.925 261.043 130.124 263.426 131.274C265.81 132.424 267.667 134.438 268.619 136.907C269.572 139.376 269.549 142.115 268.555 144.568C267.561 147.021 265.671 149.003 263.268 150.113L262.049 150.582L252.214 153.683C249.689 154.475 246.957 154.275 244.573 153.125C242.189 151.976 240.333 149.962 239.38 147.492C238.428 145.023 238.451 142.284 239.445 139.831C240.439 137.378 242.329 135.396 244.732 134.286L245.951 133.817L255.785 130.716ZM158.62 234.058C161.07 235.334 162.914 237.53 163.745 240.165C164.575 242.8 164.325 245.657 163.05 248.108C159.223 255.459 152.632 260.989 144.728 263.482C136.823 265.974 128.253 265.224 120.901 261.397C113.549 257.57 108.019 250.979 105.527 243.075C103.035 235.171 103.785 226.6 107.612 219.248C108.79 216.985 110.758 215.234 113.142 214.325C115.526 213.417 118.161 213.415 120.546 214.32L121.661 214.818L158.62 234.058ZM197.859 113.562C209.495 119.619 218.929 129.183 224.827 140.901C230.725 152.618 232.786 165.893 230.719 178.847C228.652 191.801 222.562 203.776 213.311 213.076C204.061 222.377 192.118 228.53 179.175 230.666C177.404 230.96 175.587 230.79 173.9 230.175L172.67 229.628L117.231 200.769C115.232 199.728 113.624 198.067 112.649 196.035C106.975 184.208 105.166 170.896 107.478 157.983C109.791 145.071 116.107 133.214 125.533 124.091C134.958 114.968 147.016 109.042 159.996 107.152C172.977 105.262 186.224 107.505 197.859 113.562Z" fill="#D1E2C0"/>
<path d="M48.6665 148.583C51.3215 148.586 53.8752 149.603 55.8058 151.425C57.7364 153.248 58.8981 155.739 59.0537 158.39C59.2093 161.04 58.347 163.65 56.6429 165.686C54.9389 167.722 52.5217 169.03 49.8853 169.344L48.6665 169.417H38.2499C35.5949 169.414 33.0412 168.397 31.1106 166.574C29.18 164.752 28.0182 162.261 27.8626 159.61C27.707 156.96 28.5694 154.35 30.2734 152.314C31.9775 150.278 34.3947 148.97 37.0311 148.656L38.2499 148.583H48.6665ZM132 54.8333C134.551 54.8336 137.014 55.7704 138.92 57.4658C140.827 59.1612 142.045 61.4974 142.344 64.0312L142.417 65.25V75.6666C142.414 78.3216 141.397 80.8753 139.574 82.8059C137.752 84.7365 135.261 85.8983 132.61 86.0539C129.96 86.2094 127.35 85.3471 125.314 83.6431C123.278 81.939 121.97 79.5218 121.656 76.8854L121.583 75.6666V65.25C121.583 62.4873 122.681 59.8378 124.634 57.8843C126.588 55.9308 129.237 54.8333 132 54.8333ZM225.75 148.583C228.405 148.586 230.958 149.603 232.889 151.425C234.82 153.248 235.981 155.739 236.137 158.39C236.293 161.04 235.43 163.65 233.726 165.686C232.022 167.722 229.605 169.03 226.969 169.344L225.75 169.417H215.333C212.678 169.414 210.125 168.397 208.194 166.574C206.263 164.752 205.102 162.261 204.946 159.61C204.79 156.96 205.653 154.35 207.357 152.314C209.061 150.278 211.478 148.97 214.114 148.656L215.333 148.583H225.75ZM57.9686 84.9687C59.7623 83.1752 62.1487 82.0978 64.6803 81.9386C67.2118 81.7795 69.7144 82.5494 71.7186 84.1041L72.6978 84.9687L79.9894 92.2604C81.8576 94.135 82.9423 96.6503 83.0231 99.2956C83.1038 101.941 82.1747 104.518 80.4243 106.503C78.674 108.488 76.2337 109.732 73.5991 109.983C70.9645 110.234 68.3331 109.473 66.2394 107.854L65.2603 106.99L57.9686 99.6979C56.0158 97.7445 54.9187 95.0954 54.9187 92.3333C54.9187 89.5712 56.0158 86.9221 57.9686 84.9687ZM191.302 84.9687C193.176 83.1005 195.692 82.0159 198.337 81.9351C200.982 81.8543 203.559 82.7835 205.544 84.5338C207.529 86.2842 208.774 88.7245 209.025 91.3591C209.276 93.9937 208.515 96.6251 206.896 98.7187L206.031 99.6979L198.739 106.99C196.865 108.858 194.349 109.942 191.704 110.023C189.059 110.104 186.482 109.175 184.497 107.424C182.512 105.674 181.267 103.234 181.017 100.599C180.766 97.9646 181.527 95.3332 183.146 93.2396L184.01 92.2604L191.302 84.9687ZM152.833 221.5C155.596 221.5 158.245 222.597 160.199 224.551C162.152 226.504 163.25 229.154 163.25 231.917C163.25 240.205 159.957 248.153 154.097 254.014C148.236 259.874 140.288 263.167 132 263.167C123.712 263.167 115.763 259.874 109.903 254.014C104.042 248.153 100.75 240.205 100.75 231.917C100.75 229.365 101.687 226.903 103.382 224.996C105.078 223.089 107.414 221.871 109.948 221.573L111.167 221.5H152.833ZM132 96.5C145.118 96.5 157.903 100.627 168.544 108.297C179.186 115.967 187.144 126.791 191.293 139.236C195.441 151.68 195.568 165.114 191.657 177.635C187.746 190.156 179.994 201.129 169.5 209C168.064 210.078 166.374 210.767 164.594 211L163.25 211.083H100.75C98.496 211.083 96.3029 210.352 94.4998 209C84.0057 201.129 76.254 190.156 72.3428 177.635C68.4315 165.114 68.559 151.68 72.7071 139.236C76.8553 126.791 84.8139 115.967 95.4555 108.297C106.097 100.627 118.882 96.5 132 96.5Z" fill="#3D4631"/>
</g>
</svg>
