<svg width="33" height="32" viewBox="0 0 33 32" fill="none" xmlns="http://www.w3.org/2000/svg">
<path d="M10.8999 11.6443C10.8999 10.9571 11.4571 10.3999 12.1443 10.3999H14.1848C14.4526 10.3999 14.6904 10.5713 14.7751 10.8254L15.707 13.6213C15.8049 13.915 15.672 14.2361 15.395 14.3746L13.9905 15.0768C14.6763 16.598 15.9018 17.8235 17.423 18.5093L18.1252 17.1048C18.2637 16.8278 18.5848 16.6949 18.8785 16.7928L21.6744 17.7247C21.9285 17.8094 22.0999 18.0472 22.0999 18.315V20.3555C22.0999 21.0427 21.5427 21.5999 20.8555 21.5999H20.2332C15.0786 21.5999 10.8999 17.4212 10.8999 12.2666V11.6443Z" stroke="#FAFF7E" stroke-width="1.67" stroke-linecap="round" stroke-linejoin="round"/>
</svg>
