<svg width="199" height="229" viewBox="0 0 199 229" fill="none" xmlns="http://www.w3.org/2000/svg">
<g style="mix-blend-mode:luminosity">
<path fill-rule="evenodd" clip-rule="evenodd" d="M80.8045 74.4629C77.6703 72.8314 74.2455 71.8332 70.7256 71.5252C67.2056 71.2173 63.6595 71.6056 60.2897 72.6681C56.9198 73.7306 53.7922 75.4465 51.0855 77.7177C48.3788 79.9889 46.1459 82.771 44.5144 85.9052C42.8829 89.0393 41.8846 92.4641 41.5767 95.984C41.2687 99.504 41.6571 103.05 42.7196 106.42C43.7821 109.79 45.4979 112.917 47.7691 115.624C50.0404 118.331 52.8225 120.564 55.9566 122.195L79.8227 134.619L91.9965 111.233C92.1596 110.911 92.3263 110.591 92.4968 110.273L104.671 86.8869L80.8045 74.4629ZM111.885 73.0273L88.0193 60.6034C81.6884 57.3077 76.9259 51.6321 74.7797 44.8251C72.6334 38.0181 73.2792 30.6372 76.5748 24.3063C79.8705 17.9754 85.5461 13.213 92.3532 11.0667C99.1602 8.92049 106.541 9.56623 112.872 12.8619L136.738 25.2858L111.885 73.0273ZM150.598 32.5006L125.745 80.2422L149.611 92.6661C155.925 95.7964 163.214 96.3259 169.914 94.1409C176.614 91.9558 182.189 87.2304 185.443 80.9796C188.697 74.7288 189.37 67.4511 187.317 60.7097C185.264 53.9683 180.649 48.3009 174.464 44.9246L150.598 32.5006ZM142.401 106.516C136.137 103.254 128.841 102.586 122.089 104.656C115.336 106.726 109.668 111.368 106.308 117.58L105.909 118.347C103.537 123.089 102.62 128.427 103.272 133.69C103.924 138.952 106.117 143.905 109.574 147.925C113.032 151.946 117.601 154.855 122.706 156.287C127.812 157.719 133.227 157.611 138.272 155.976C143.316 154.34 147.764 151.251 151.059 147.096C154.353 142.94 156.346 137.904 156.787 132.62C157.228 127.335 156.098 122.038 153.539 117.394C150.979 112.75 147.104 108.966 142.401 106.516ZM48.7418 136.055C44.0202 133.595 38.6751 132.59 33.3825 133.168C28.0899 133.745 23.0876 135.88 19.0081 139.301C14.9286 142.722 11.9554 147.276 10.4643 152.387C8.97323 157.498 9.03136 162.936 10.6314 168.014C12.2314 173.092 15.3013 177.582 19.453 180.915C23.6047 184.248 28.6515 186.275 33.9553 186.739C39.259 187.204 44.5814 186.085 49.2493 183.525C53.9171 180.964 57.7208 177.077 60.1792 172.354L72.6079 148.479L48.7418 136.055Z" fill="#FAFF7E"/>
<path fill-rule="evenodd" clip-rule="evenodd" d="M32.4574 69.4479C28.924 69.4479 25.4252 70.1439 22.1608 71.496C18.8964 72.8482 15.9303 74.8301 13.4318 77.3286C10.9333 79.827 8.9514 82.7932 7.59924 86.0576C6.24707 89.322 5.55112 92.8208 5.55112 96.3542C5.55112 99.8876 6.24707 103.386 7.59924 106.651C8.9514 109.915 10.9333 112.881 13.4318 115.38C15.9303 117.878 18.8964 119.86 22.1608 121.212C25.4252 122.564 28.924 123.26 32.4574 123.26H59.3636V96.8958C59.3595 96.5347 59.3595 96.1736 59.3636 95.8125V69.4479H32.4574ZM59.3636 53.8229H32.4574C25.32 53.8229 18.475 50.9876 13.4281 45.9407C8.38122 40.8939 5.54591 34.0488 5.54591 26.9115C5.54591 19.7741 8.38122 12.9291 13.4281 7.88218C18.475 2.83531 25.32 0 32.4574 0H59.3636V53.8229ZM74.9886 0V53.8229H101.895C108.941 53.6843 115.651 50.7881 120.585 45.7563C125.518 40.7245 128.282 33.9585 128.282 26.9115C128.282 19.8644 125.518 13.0984 120.585 8.06663C115.651 3.03485 108.941 0.138624 101.895 0H74.9886ZM101.895 69.4375C94.8323 69.4366 88.0525 72.2127 83.0187 77.1666C77.9849 82.1205 75.1007 88.855 74.9886 95.9167V96.7813C75.0748 102.083 76.7259 107.242 79.7343 111.608C82.7427 115.975 86.9744 119.356 91.8978 121.325C96.8213 123.295 102.217 123.766 107.407 122.679C112.597 121.592 117.35 118.995 121.07 115.215C124.789 111.436 127.308 106.641 128.312 101.434C129.315 96.2271 128.757 90.8397 126.708 85.9487C124.66 81.0576 121.211 76.881 116.797 73.9434C112.382 71.0058 107.198 69.4382 101.895 69.4375ZM32.4574 138.885C27.1333 138.883 21.9282 140.46 17.5004 143.417C13.0726 146.373 9.62104 150.576 7.58219 155.494C5.54333 160.412 5.0088 165.825 6.04621 171.047C7.08362 176.269 9.64636 181.066 13.4103 184.831C17.1743 188.597 21.9703 191.161 27.1919 192.201C32.4135 193.24 37.8261 192.708 42.7451 190.671C47.6641 188.634 51.8685 185.184 54.8266 180.757C57.7847 176.331 59.3636 171.126 59.3636 165.802V138.885H32.4574Z" fill="#3D4631"/>
</g>
</svg>
