<svg width="223" height="201" viewBox="0 0 223 201" fill="none" xmlns="http://www.w3.org/2000/svg">
<g style="mix-blend-mode:luminosity">
<g filter="url(#filter0_d_337_2570)">
<path d="M55.7507 91.9947C57.8747 92.0052 59.9145 92.8264 61.4533 94.2904C62.9922 95.7545 63.9139 97.7508 64.0302 99.8716C64.1465 101.992 63.4486 104.078 62.079 105.701C60.7095 107.325 58.7717 108.364 56.6617 108.607L55.6864 108.661L47.3532 108.629C45.2292 108.619 43.1894 107.797 41.6506 106.333C40.1118 104.869 39.19 102.873 39.0737 100.752C38.9574 98.6313 39.6554 96.5461 41.0249 94.9226C42.3944 93.2991 44.3322 92.2598 46.4423 92.0171L47.4175 91.9625L55.7507 91.9947ZM122.706 17.2525C124.747 17.2606 126.715 18.0176 128.235 19.3798C129.755 20.742 130.722 22.6147 130.953 24.6427L131.007 25.6179L130.975 33.9512C130.965 36.0751 130.144 38.1149 128.679 39.6537C127.215 41.1926 125.219 42.1143 123.098 42.2306C120.977 42.3469 118.892 41.649 117.269 40.2794C115.645 38.9099 114.606 36.9722 114.363 34.8621L114.309 33.8869L114.341 25.5536C114.349 23.3435 115.236 21.2272 116.804 19.6705C118.373 18.1137 120.496 17.2439 122.706 17.2525ZM197.416 92.5413C199.54 92.5518 201.58 93.373 203.119 94.837C204.658 96.3011 205.579 98.2974 205.696 100.418C205.812 102.539 205.114 104.624 203.745 106.248C202.375 107.871 200.437 108.911 198.327 109.153L197.352 109.208L189.019 109.176C186.895 109.165 184.855 108.344 183.316 106.88C181.777 105.416 180.856 103.42 180.739 101.299C180.623 99.1779 181.321 97.0927 182.69 95.4692C184.06 93.8457 185.998 92.8064 188.108 92.5637L189.083 92.5091L197.416 92.5413ZM63.3887 41.1321C64.8292 39.7028 66.7417 38.8483 68.7673 38.7288C70.793 38.6092 72.7927 39.2329 74.3913 40.4829L75.172 41.1776L80.9827 47.0334C82.4715 48.5388 83.3315 50.5544 83.3879 52.6709C83.4444 54.7874 82.6931 56.846 81.2867 58.4286C79.8803 60.0112 77.9242 60.9992 75.8158 61.1919C73.7073 61.3845 71.6046 60.7674 69.9347 59.4658L69.154 58.7711L63.3433 52.9154C61.787 51.3466 60.9176 49.224 60.9261 47.0143C60.9346 44.8046 61.8204 42.6888 63.3887 41.1321ZM170.055 41.5437C171.56 40.0549 173.576 39.195 175.692 39.1385C177.809 39.082 179.867 39.8333 181.45 41.2397C183.032 42.6461 184.02 44.6022 184.213 46.7106C184.406 48.8191 183.789 50.9218 182.487 52.5917L181.792 53.3724L175.937 59.1832C174.431 60.6719 172.416 61.5319 170.299 61.5883C168.183 61.6448 166.124 60.8935 164.541 59.4871C162.959 58.0807 161.971 56.1247 161.778 54.0162C161.585 51.9078 162.203 49.805 163.504 48.1351L164.199 47.3544L170.055 41.5437ZM138.858 150.649C141.068 150.658 143.185 151.544 144.741 153.113C146.298 154.681 147.168 156.804 147.159 159.015C147.134 165.645 144.475 171.994 139.769 176.664C135.063 181.334 128.694 183.943 122.063 183.918C115.433 183.892 109.084 181.234 104.414 176.527C99.7437 171.821 97.1343 165.452 97.1599 158.822C97.168 156.781 97.925 154.813 99.2872 153.293C100.649 151.773 102.522 150.806 104.55 150.575L105.525 150.52L138.858 150.649ZM122.578 50.5855C133.072 50.626 143.287 53.9673 151.777 60.1362C160.266 66.305 166.599 74.9886 169.88 84.9569C173.16 94.9253 173.22 105.673 170.053 115.678C166.885 125.682 160.65 134.437 152.23 140.701C151.078 141.559 149.724 142.105 148.299 142.285L147.224 142.348L97.2242 142.155C95.4211 142.148 93.6689 141.557 92.2306 140.469C83.8597 134.14 77.6923 125.338 74.6019 115.309C71.5116 105.281 71.655 94.5336 75.012 84.5909C78.3689 74.6482 84.7691 66.0137 93.306 59.9106C101.843 53.8074 112.084 50.5451 122.578 50.5855Z" fill="#D1E2C0"/>
</g>
<path d="M33.3332 91.6667C35.4572 91.669 37.5002 92.4823 39.0446 93.9404C40.5891 95.3985 41.5185 97.3913 41.643 99.5116C41.7675 101.632 41.0776 103.72 39.7143 105.349C38.3511 106.977 36.4173 108.024 34.3082 108.275L33.3332 108.333H24.9999C22.8759 108.331 20.8329 107.518 19.2885 106.06C17.744 104.602 16.8146 102.609 16.6901 100.488C16.5656 98.368 17.2555 96.2802 18.6188 94.6514C19.982 93.0226 21.9158 91.9759 24.0249 91.725L24.9999 91.6667H33.3332ZM99.9999 16.6667C102.041 16.667 104.011 17.4163 105.536 18.7726C107.062 20.129 108.036 21.9979 108.275 24.025L108.333 25V33.3334C108.331 35.4573 107.518 37.5003 106.059 39.0448C104.601 40.5892 102.609 41.5186 100.488 41.6431C98.3679 41.7676 96.2801 41.0777 94.6513 39.7145C93.0225 38.3512 91.9757 36.4175 91.7249 34.3084L91.6665 33.3334V25C91.6665 22.7899 92.5445 20.6703 94.1073 19.1075C95.6701 17.5447 97.7897 16.6667 99.9999 16.6667ZM175 91.6667C177.124 91.669 179.167 92.4823 180.711 93.9404C182.256 95.3985 183.185 97.3913 183.31 99.5116C183.434 101.632 182.744 103.72 181.381 105.349C180.018 106.977 178.084 108.024 175.975 108.275L175 108.333H166.667C164.543 108.331 162.5 107.518 160.955 106.06C159.411 104.602 158.481 102.609 158.357 100.488C158.232 98.368 158.922 96.2802 160.285 94.6514C161.649 93.0226 163.582 91.9759 165.692 91.725L166.667 91.6667H175ZM40.7749 40.775C42.2098 39.3402 44.119 38.4783 46.1442 38.3509C48.1694 38.2236 50.1715 38.8396 51.7749 40.0834L52.5582 40.775L58.3915 46.6084C59.8861 48.108 60.7538 50.1203 60.8185 52.2366C60.8831 54.3528 60.1398 56.4143 58.7395 58.0023C57.3392 59.5904 55.387 60.5859 53.2793 60.7867C51.1716 60.9875 49.0665 60.3785 47.3915 59.0834L46.6082 58.3917L40.7749 52.5584C39.2126 50.9956 38.335 48.8764 38.335 46.6667C38.335 44.457 39.2126 42.3378 40.7749 40.775ZM147.442 40.775C148.941 39.2805 150.953 38.4127 153.07 38.3481C155.186 38.2835 157.247 39.0268 158.836 40.4271C160.424 41.8274 161.419 43.7796 161.62 45.8873C161.821 47.995 161.212 50.1001 159.917 51.775L159.225 52.5584L153.392 58.3917C151.892 59.8862 149.88 60.754 147.763 60.8186C145.647 60.8832 143.586 60.1399 141.998 58.7396C140.41 57.3393 139.414 55.3871 139.213 53.2794C139.012 51.1717 139.621 49.0666 140.917 47.3917L141.608 46.6084L147.442 40.775ZM116.667 150C118.877 150 120.996 150.878 122.559 152.441C124.122 154.004 125 156.123 125 158.333C125 164.964 122.366 171.323 117.678 176.011C112.989 180.699 106.63 183.333 99.9999 183.333C93.3695 183.333 87.0106 180.699 82.3222 176.011C77.6338 171.323 74.9999 164.964 74.9999 158.333C75.0002 156.292 75.7495 154.322 77.1058 152.797C78.4622 151.272 80.3311 150.297 82.3582 150.058L83.3332 150H116.667ZM99.9999 50C110.494 50 120.722 53.3019 129.235 59.4379C137.749 65.5739 144.116 74.233 147.434 84.1886C150.753 94.1442 150.855 104.892 147.726 114.908C144.597 124.925 138.395 133.704 130 140C128.851 140.863 127.499 141.414 126.075 141.6L125 141.667H74.9999C73.1968 141.667 71.4423 141.082 69.9999 140C61.6046 133.704 55.4032 124.925 52.2742 114.908C49.1452 104.892 49.2472 94.1442 52.5657 84.1886C55.8843 74.233 62.2511 65.5739 70.7644 59.4379C79.2776 53.3019 89.5058 50 99.9999 50Z" fill="#3D4631"/>
</g>
<defs>
<filter id="filter0_d_337_2570" x="35.061" y="17.2524" width="174.647" height="174.666" filterUnits="userSpaceOnUse" color-interpolation-filters="sRGB">
<feFlood flood-opacity="0" result="BackgroundImageFix"/>
<feColorMatrix in="SourceAlpha" type="matrix" values="0 0 0 0 0 0 0 0 0 0 0 0 0 0 0 0 0 0 127 0" result="hardAlpha"/>
<feOffset dy="4"/>
<feGaussianBlur stdDeviation="2"/>
<feComposite in2="hardAlpha" operator="out"/>
<feColorMatrix type="matrix" values="0 0 0 0 0 0 0 0 0 0 0 0 0 0 0 0 0 0 0.25 0"/>
<feBlend mode="normal" in2="BackgroundImageFix" result="effect1_dropShadow_337_2570"/>
<feBlend mode="normal" in="SourceGraphic" in2="effect1_dropShadow_337_2570" result="shape"/>
</filter>
</defs>
</svg>
