<svg width="550" height="404" viewBox="0 0 550 404" fill="none" xmlns="http://www.w3.org/2000/svg">
<rect width="550" height="471" fill="#3D4631"/>
<g clip-path="url(#clip0_457_3674)">
<path d="M486 599C486 592.125 483.552 586.24 478.656 581.344C473.76 576.448 467.875 574 461 574C454.125 574 448.24 576.448 443.344 581.344C438.448 586.24 436 592.125 436 599C436 605.875 438.448 611.76 443.344 616.656C448.24 621.552 454.125 624 461 624C467.875 624 473.76 621.552 478.656 616.656C483.552 611.76 486 605.875 486 599ZM551 549V329C551 326.292 550.01 323.948 548.031 321.969C546.052 319.99 543.708 319 541 319H381C378.292 319 375.948 319.99 373.969 321.969C371.99 323.948 371 326.292 371 329V549C371 551.708 371.99 554.052 373.969 556.031C375.948 558.01 378.292 559 381 559H541C543.708 559 546.052 558.01 548.031 556.031C550.01 554.052 551 551.708 551 549ZM491 284C491 280.667 489.333 279 486 279H436C432.667 279 431 280.667 431 284C431 287.333 432.667 289 436 289H486C489.333 289 491 287.333 491 284ZM581 279V599C581 609.833 577.042 619.208 569.125 627.125C561.208 635.042 551.833 639 541 639H381C370.167 639 360.792 635.042 352.875 627.125C344.958 619.208 341 609.833 341 599V279C341 268.167 344.958 258.792 352.875 250.875C360.792 242.958 370.167 239 381 239H541C551.833 239 561.208 242.958 569.125 250.875C577.042 258.792 581 268.167 581 279Z" fill="#BABE58"/>
</g>
<defs>
<clipPath id="clip0_457_3674">
<rect width="240" height="400" fill="white" transform="translate(341 239)"/>
</clipPath>
</defs>
</svg>
