<svg width="550" height="404" viewBox="0 0 550 404" fill="none" xmlns="http://www.w3.org/2000/svg">
<rect width="550" height="471" fill="#D1E2C0"/>
<rect x="314" y="250" width="354.745" height="300" rx="24" fill="#FAFF7E"/>
<path d="M641.455 250H341.288C334.051 250 327.11 252.873 321.992 257.988C316.875 263.103 314 270.04 314 277.273V522.727C314 529.96 316.875 536.897 321.992 542.012C327.11 547.127 334.051 550 341.288 550H641.455C648.692 550 655.633 547.127 660.751 542.012C665.868 536.897 668.743 529.96 668.743 522.727V277.273C668.743 270.04 665.868 263.103 660.751 257.988C655.633 252.873 648.692 250 641.455 250ZM431.338 430C434.233 432.17 436.147 435.4 436.659 438.981C437.17 442.561 436.238 446.198 434.067 449.091C431.896 451.984 428.664 453.897 425.081 454.408C421.499 454.92 417.86 453.988 414.965 451.818L360.389 410.909C358.695 409.639 357.32 407.992 356.372 406.098C355.425 404.205 354.932 402.117 354.932 400C354.932 397.883 355.425 395.795 356.372 393.902C357.32 392.008 358.695 390.361 360.389 389.091L414.965 348.182C417.86 346.012 421.499 345.08 425.081 345.592C428.664 346.103 431.896 348.016 434.067 350.909C436.238 353.802 437.17 357.439 436.659 361.019C436.147 364.6 434.233 367.83 431.338 370L391.31 400L431.338 430ZM531.775 308.295L477.199 499.205C476.734 500.957 475.924 502.599 474.816 504.035C473.708 505.47 472.326 506.671 470.748 507.566C469.171 508.461 467.431 509.033 465.629 509.248C463.828 509.463 462.002 509.317 460.258 508.818C458.514 508.32 456.887 507.478 455.473 506.344C454.058 505.209 452.883 503.804 452.018 502.211C451.153 500.617 450.615 498.867 450.435 497.063C450.254 495.259 450.436 493.438 450.968 491.705L505.544 300.795C506.593 297.382 508.94 294.516 512.081 292.813C515.221 291.11 518.905 290.706 522.34 291.688C525.775 292.671 528.688 294.96 530.452 298.066C532.216 301.171 532.691 304.844 531.775 308.295ZM622.354 410.909L567.778 451.818C564.883 453.988 561.244 454.92 557.662 454.408C554.08 453.897 550.847 451.984 548.676 449.091C546.505 446.198 545.573 442.561 546.085 438.981C546.596 435.4 548.51 432.17 551.405 430L591.433 400L551.405 370C549.972 368.926 548.764 367.579 547.851 366.039C546.938 364.498 546.338 362.792 546.085 361.019C545.831 359.247 545.93 357.441 546.374 355.707C546.819 353.972 547.601 352.342 548.676 350.909C549.751 349.476 551.098 348.27 552.64 347.357C554.182 346.445 555.888 345.845 557.662 345.592C559.436 345.338 561.242 345.437 562.978 345.881C564.713 346.326 566.344 347.107 567.778 348.182L622.354 389.091C624.048 390.361 625.424 392.008 626.371 393.902C627.318 395.795 627.811 397.883 627.811 400C627.811 402.117 627.318 404.205 626.371 406.098C625.424 407.992 624.048 409.639 622.354 410.909Z" fill="#49543A"/>
</svg>
